<svg width="44" height="35" viewBox="0 0 44 35" fill="none" xmlns="http://www.w3.org/2000/svg">
<path d="M5.76059 34.8858V6.015H16.6727C21.2438 6.015 24.9787 7.3898 27.8774 10.1394C30.7761 12.8615 32.2255 16.2985 32.2255 20.4504C32.2255 24.5748 30.7622 28.0118 27.8356 30.7614C24.9369 33.511 21.2159 34.8858 16.6727 34.8858H5.76059ZM10.9031 30.2665H16.6727C19.7108 30.2665 22.1635 29.3591 24.031 27.5444C25.8985 25.7022 26.8322 23.3375 26.8322 20.4504C26.8322 17.5908 25.8985 15.2399 24.031 13.3977C22.1635 11.5555 19.7108 10.6343 16.6727 10.6343H10.9031V30.2665Z" fill="white"/>
<path d="M38.2319 27.6679V4.90565L33.2532 6.27923L32.2259 2.35471L39.6543 0H43.0525V27.6679H38.2319Z" fill="white"/>
<path d="M0.948242 15.6388H15.3837V19.2477H0.948242V15.6388Z" fill="white"/>
<path d="M0.948242 21.653H15.3837V25.2618H0.948242V21.653Z" fill="white"/>
</svg>
