<svg width="1010" height="244" viewBox="0 0 1010 244" fill="none" xmlns="http://www.w3.org/2000/svg">
<path d="M0.520001 191.92V10.48C0.520001 7.02399 0.904001 4.71999 1.672 3.568C3.208 1.45599 6.184 0.399986 10.6 0.399986H60.424C82.12 0.399986 98.536 6.73599 109.672 19.408C121 31.888 126.664 49.936 126.664 73.552V122.8C126.664 144.496 123.304 161.392 116.584 173.488C106.024 192.496 87.208 202 60.136 202H10.6C7.144 202 4.84 201.616 3.688 200.848C1.576 199.312 0.520001 196.336 0.520001 191.92ZM43.144 44.176V159.664C43.144 161.776 43.432 163.312 44.008 164.272C44.584 165.04 46.024 165.424 48.328 165.424H58.12C66.952 165.424 73.48 162.352 77.704 156.208C81.928 149.872 84.04 138.64 84.04 122.512V80.464C84.04 68.368 82.888 59.248 80.584 53.104C76.744 42.544 69.448 37.264 58.696 37.264H48.328C46.024 37.264 44.584 37.936 44.008 39.28C43.432 40.624 43.144 42.256 43.144 44.176ZM189.943 120.784V193.936C189.943 197.392 189.175 199.6 187.639 200.56C186.295 201.52 184.375 202 181.879 202H158.839C155.383 202 153.175 201.328 152.215 199.984C151.255 198.448 150.775 196.432 150.775 193.936V49.936C150.775 46.48 151.447 44.272 152.791 43.312C154.327 42.352 156.343 41.872 158.839 41.872H185.047C188.503 41.872 190.231 43.216 190.231 45.904V49.072C190.231 49.84 190.711 50.608 191.671 51.376L195.703 48.784C199.735 45.712 202.999 43.6 205.495 42.448C209.911 40.528 215.287 39.568 221.623 39.568C224.503 39.568 226.615 40.048 227.959 41.008C229.495 41.776 230.263 43.6 230.263 46.48V74.416C230.263 76.72 229.495 78.256 227.959 79.024C226.615 79.792 225.079 80.176 223.351 80.176H217.879C213.271 80.176 209.623 80.752 206.935 81.904C204.247 83.056 201.559 84.976 198.871 87.664C194.647 91.888 192.055 96.496 191.095 101.488C190.327 106.48 189.943 112.912 189.943 120.784ZM245.021 146.416V97.456C245.021 81.904 247.997 69.52 253.949 60.304C262.781 46.48 278.045 39.568 299.741 39.568C321.245 39.568 336.509 46.48 345.533 60.304C351.485 69.52 354.461 81.904 354.461 97.456V146.416C354.461 161.968 351.485 174.352 345.533 183.568C336.701 197.392 321.437 204.304 299.741 204.304C278.237 204.304 262.973 197.392 253.949 183.568C247.997 174.352 245.021 161.968 245.021 146.416ZM284.189 90.832V153.04C284.189 160.144 285.821 165.232 289.085 168.304C291.773 170.8 295.325 172.048 299.741 172.048C303.965 172.048 307.421 170.8 310.109 168.304C313.565 165.04 315.293 159.952 315.293 153.04V90.832C315.293 83.728 313.757 78.832 310.685 76.144C307.805 73.264 304.157 71.824 299.741 71.824C295.517 71.824 292.061 73.072 289.373 75.568C285.917 78.832 284.189 83.92 284.189 90.832ZM417.891 197.68V235.408C417.891 238.864 417.123 241.072 415.587 242.032C414.243 242.992 412.323 243.472 409.827 243.472H386.787C383.331 243.472 381.123 242.704 380.163 241.168C379.203 239.824 378.723 237.904 378.723 235.408V49.936C378.723 46.48 379.395 44.272 380.739 43.312C382.275 42.352 384.291 41.872 386.787 41.872H412.995C416.451 41.872 418.179 43.216 418.179 45.904V48.208C418.179 49.552 418.851 50.224 420.195 50.224C420.387 50.224 421.251 49.744 422.787 48.784C426.051 45.904 428.931 43.888 431.427 42.736C435.843 40.624 441.411 39.568 448.131 39.568C464.259 39.568 475.203 46.288 480.963 59.728C484.227 67.408 485.859 78.64 485.859 93.424V151.6C485.859 166 483.843 177.232 479.811 185.296C473.475 197.968 462.243 204.304 446.115 204.304C439.587 204.304 434.307 203.44 430.275 201.712C426.627 199.792 422.979 197.776 419.331 195.664C418.371 196.432 417.891 197.104 417.891 197.68ZM417.891 93.712V150.16C417.891 155.152 418.563 159.088 419.907 161.968C422.211 166.768 426.243 169.168 432.003 169.168C437.763 169.168 441.795 166.768 444.099 161.968C445.443 159.088 446.115 155.152 446.115 150.16V93.712C446.115 88.72 445.443 84.784 444.099 81.904C441.795 77.104 437.763 74.704 432.003 74.704C426.243 74.704 422.211 77.104 419.907 81.904C418.563 84.784 417.891 88.72 417.891 93.712ZM543.213 191.92V59.44C543.213 56.944 541.965 55.696 539.469 55.696H513.261C508.845 55.696 506.061 54.928 504.909 53.392C503.757 51.664 503.181 49.072 503.181 45.616V32.368C503.181 29.68 503.469 27.76 504.045 26.608C505.389 24.112 507.789 22.864 511.245 22.864H518.445C523.437 22.864 528.429 21.808 533.421 19.696C538.413 17.584 542.637 14.8 546.093 11.344C549.549 6.92798 551.757 4.04799 552.717 2.70399C553.869 1.16799 556.173 0.399986 559.629 0.399986H575.757C580.173 0.399986 582.957 1.26399 584.109 2.99199C585.261 4.52799 585.837 7.02399 585.837 10.48V191.92C585.837 196.336 584.973 199.12 583.245 200.272C581.709 201.424 579.213 202 575.757 202H553.293C548.877 202 546.093 201.232 544.941 199.696C543.789 197.968 543.213 195.376 543.213 191.92ZM694.71 13.072L723.222 3.85599C724.374 3.47199 725.334 3.27998 726.102 3.27998C728.406 3.27998 729.558 4.91199 729.558 8.17599V40.432C729.558 42.928 730.806 44.176 733.302 44.176H744.534C747.03 44.176 748.95 44.656 750.294 45.616C751.83 46.576 752.598 48.784 752.598 52.24V65.776C752.598 69.232 751.83 71.44 750.294 72.4C748.95 73.36 747.03 73.84 744.534 73.84H732.726C730.614 73.84 729.558 74.896 729.558 77.008V155.344C729.558 160.912 730.326 164.848 731.862 167.152C733.59 169.456 736.95 170.608 741.942 170.608C744.054 170.608 745.686 170.512 746.838 170.32C747.99 169.936 749.238 169.744 750.582 169.744C752.886 169.744 754.038 171.184 754.038 174.064V195.952C754.038 199.024 752.79 201.136 750.294 202.288C747.798 203.632 742.422 204.304 734.166 204.304C718.614 204.304 707.382 201.52 700.47 195.952C693.75 190.192 690.39 180.496 690.39 166.864V77.584C690.39 76.048 690.006 75.088 689.238 74.704C688.47 74.32 687.606 74.032 686.646 73.84H682.038C679.926 73.84 678.39 73.36 677.43 72.4C676.47 71.44 675.99 69.232 675.99 65.776V52.24C675.99 48.784 676.47 46.576 677.43 45.616C678.39 44.656 679.926 44.176 682.038 44.176H686.646C687.222 44.176 687.606 44.176 687.798 44.176C689.526 43.6 690.39 42.352 690.39 40.432V19.12C690.39 16.048 691.83 14.032 694.71 13.072ZM769.046 146.416V97.456C769.046 81.904 772.022 69.52 777.974 60.304C786.806 46.48 802.07 39.568 823.766 39.568C845.27 39.568 860.534 46.48 869.558 60.304C875.51 69.52 878.486 81.904 878.486 97.456V146.416C878.486 161.968 875.51 174.352 869.558 183.568C860.726 197.392 845.462 204.304 823.766 204.304C802.262 204.304 786.998 197.392 777.974 183.568C772.022 174.352 769.046 161.968 769.046 146.416ZM808.214 90.832V153.04C808.214 160.144 809.846 165.232 813.11 168.304C815.798 170.8 819.35 172.048 823.766 172.048C827.99 172.048 831.446 170.8 834.134 168.304C837.59 165.04 839.318 159.952 839.318 153.04V90.832C839.318 83.728 837.782 78.832 834.71 76.144C831.83 73.264 828.182 71.824 823.766 71.824C819.542 71.824 816.086 73.072 813.398 75.568C809.942 78.832 808.214 83.92 808.214 90.832ZM941.915 197.68V235.408C941.915 238.864 941.147 241.072 939.611 242.032C938.267 242.992 936.347 243.472 933.851 243.472H910.811C907.355 243.472 905.147 242.704 904.187 241.168C903.227 239.824 902.747 237.904 902.747 235.408V49.936C902.747 46.48 903.419 44.272 904.763 43.312C906.299 42.352 908.315 41.872 910.811 41.872H937.019C940.475 41.872 942.203 43.216 942.203 45.904V48.208C942.203 49.552 942.875 50.224 944.219 50.224C944.411 50.224 945.275 49.744 946.811 48.784C950.075 45.904 952.955 43.888 955.451 42.736C959.867 40.624 965.435 39.568 972.155 39.568C988.283 39.568 999.227 46.288 1004.99 59.728C1008.25 67.408 1009.88 78.64 1009.88 93.424V151.6C1009.88 166 1007.87 177.232 1003.84 185.296C997.499 197.968 986.267 204.304 970.139 204.304C963.611 204.304 958.331 203.44 954.299 201.712C950.651 199.792 947.003 197.776 943.355 195.664C942.395 196.432 941.915 197.104 941.915 197.68ZM941.915 93.712V150.16C941.915 155.152 942.587 159.088 943.931 161.968C946.235 166.768 950.267 169.168 956.027 169.168C961.787 169.168 965.819 166.768 968.123 161.968C969.467 159.088 970.139 155.152 970.139 150.16V93.712C970.139 88.72 969.467 84.784 968.123 81.904C965.819 77.104 961.787 74.704 956.027 74.704C950.267 74.704 946.235 77.104 943.931 81.904C942.587 84.784 941.915 88.72 941.915 93.712Z" fill="white"/>
<path d="M656.373 168.304V193.936C656.373 197.392 655.605 199.6 654.069 200.56C652.725 201.52 650.805 202 648.309 202H622.677C619.221 202 617.013 201.328 616.053 199.984C615.093 198.448 614.613 196.432 614.613 193.936V168.304C614.613 164.848 615.285 162.64 616.629 161.68C618.165 160.72 620.181 160.24 622.677 160.24H648.309C651.765 160.24 653.973 161.008 654.933 162.544C655.893 163.888 656.373 165.808 656.373 168.304Z" fill="#EE7B48"/>
</svg>
